# xmcd CD database file
#
# Track frame offsets:
#	183
#	11693
#	23845
#	40243
#	53060
#	67498
#	76288
#	89873
#	101013
#	113358
#	125555
#	136353
#	147983
#	160173
#	170273
#	184523
#	197248
#	208345
#	219950
#	229495
#	241475
#	250608
#
# Disc length: 3533 seconds
#
# Revision: 0
# Processed by: cddbd v1.4PL0 Copyright (c) Steve Scherf et al.
# Submitted via: CDex 1.40Beta9
#
DISCID=400dcb16
DTITLE=Freddy Fender - Collection
DYEAR=1989
DGENRE=Country
TTITLE0=Before The Next Teardrops Falls
TTITLE1=Tell It Like It Is
TTITLE2=Secret Love
TTITLE3=I Love My Ranchogrande
TTITLE4=Roses Are Red
TTITLE5=Breaking Up Is Hard
TTITLE6=These Arms Of Mine
TTITLE7=It's All In The Game
TTITLE8=Pass Me By (If You're Only Passing Through)
TTITLE9=Vaya Con Dios
TTITLE10=You're Turnin' Down The Flame Of Love Too Low
TTITLE11=I'm Leaving It All Up To You
TTITLE12=Wasted Days And Wasted Nights
TTITLE13=The Rains Came
TTITLE14=Wild Side Of Life
TTITLE15=You'll Loose A Good Thing
TTITLE16=Mathilda
TTITLE17=Livin' It Down
TTITLE18=My Tears Are Falling Tonight Love
TTITLE19=What A Difference Day Made
TTITLE20=Please Mr. Sandman
TTITLE21=Since I Met You Baby
EXTD=YEAR: 1989 ID3G: 2
EXTT0=
EXTT1=
EXTT2=
EXTT3=
EXTT4=
EXTT5=
EXTT6=
EXTT7=
EXTT8=
EXTT9=
EXTT10=
EXTT11=
EXTT12=
EXTT13=
EXTT14=
EXTT15=
EXTT16=
EXTT17=
EXTT18=
EXTT19=
EXTT20=
EXTT21=
PLAYORDER=
